# xmcd
#
# Track frame offsets: 
#        150
#        14763
#        32594
#        54279
#        71162
#        82311
#        98204
#        113501
#        130425
#        144658
#        157933
#        174127
#        188127
#        204017
#        218241
#        234211
#        247113
#        263971
#        276083
#        292672
#        306177
#
# Disc length: 4289 seconds
#
# Revision: 0
# Processed by: cddbd v1.5.2PL0 Copyright (c) Steve Scherf et al.
# Submitted via: ExactAudioCopy v0.99pb5
#
DISCID=2710bf15
DTITLE=Various Artist - Deep Fried Southern Style
DYEAR=2011
DGENRE=Beach
TTITLE0=Johnnie Taylor - A Love To Call Mine
TTITLE1=Oscar Toney Jr. - No More Heartaches
TTITLE2=Henry Gray - Katrina Katrina
TTITLE3=T. Graham Brown - Memphis Women And Chicken
TTITLE4=Manny Lloyd - Swanee River Rock
TTITLE5=Mark Roberts And Breeze Band - The Way You Love Me
TTITLE6=Ruby Turner - Cant Tear Myself Away
TTITLE7=Johnnie Taylor - Airtight Alibi
TTITLE8=The Holiday Band - Im Your Puppet
TTITLE9=Eliza - Broken Hearted Melody
TTITLE10=The Roadrunners - Let The Boogie Woogie Roll
TTITLE11=Rickey Godfrey - G-Man
TTITLE12=Mark Roberts And Breeze Band - Love Me As Hard As You Hurt Me
TTITLE13=Clinton Horton - Stop Me From Starting This Feeling
TTITLE14=Holly Singletary-Artis - More Love
TTITLE15=T. Graham Brown - Brilliant Conversationalist
TTITLE16=Rick Strickland Band - Bubba Whites
TTITLE17=The Roadrunners - Devil With A Blue Dress On
TTITLE18=Holly Singletary-Artis - Come Here You
TTITLE19=Men Of Distinction - Actions Speak Louder Than Words
TTITLE20=Diedra - You Do Me Wrong
EXTD=
EXTT0=
EXTT1=
EXTT2=
EXTT3=
EXTT4=
EXTT5=
EXTT6=
EXTT7=
EXTT8=
EXTT9=
EXTT10=
EXTT11=
EXTT12=
EXTT13=
EXTT14=
EXTT15=
EXTT16=
EXTT17=
EXTT18=
EXTT19=
EXTT20=
PLAYORDER=
